<svg width="21" height="18" viewBox="0 0 21 18" fill="none" xmlns="http://www.w3.org/2000/svg">
<path fill-rule="evenodd" clip-rule="evenodd" d="M18.0614 13.9913H3.38444L1.74557 15.357V2.93864C1.74557 2.64796 1.98121 2.41232 2.27189 2.41232H18.0614C18.352 2.41232 18.5877 2.64796 18.5877 2.93864V13.465C18.5877 13.7556 18.352 13.9913 18.0614 13.9913ZM2.27189 0.833374C1.10918 0.833374 0.166626 1.77593 0.166626 2.93864V16.4807C0.166626 17.3732 1.20753 17.8607 1.89314 17.2894L3.9561 15.5702H18.0614C19.2241 15.5702 20.1666 14.6277 20.1666 13.465V2.93864C20.1666 1.77593 19.2241 0.833374 18.0614 0.833374H2.27189ZM7.8473 5.54017C7.73262 5.24044 7.45495 5.0439 7.14617 5.0439C6.8374 5.0439 6.55973 5.24044 6.44505 5.54017L4.43136 10.8033C4.27647 11.2082 4.46482 11.6676 4.85204 11.8295C5.23926 11.9915 5.67872 11.7946 5.83361 11.3897L6.04647 10.8334H8.24587L8.45874 11.3897C8.61363 11.7946 9.05309 11.9915 9.44031 11.8295C9.82753 11.6676 10.0159 11.2082 9.86098 10.8033L7.8473 5.54017ZM7.14617 7.9591L7.64177 9.25443H6.65058L7.14617 7.9591ZM12.1804 5.0439C11.7634 5.0439 11.4253 5.39736 11.4253 5.83337V11.0965C11.4253 11.5325 11.7634 11.886 12.1804 11.886H13.1873C14.7165 11.886 15.9561 10.59 15.9561 8.99127V7.93864C15.9561 6.33992 14.7165 5.0439 13.1873 5.0439H12.1804ZM12.9356 10.3071V6.62285H13.1873C13.8824 6.62285 14.4458 7.21195 14.4458 7.93864V8.99127C14.4458 9.71796 13.8824 10.3071 13.1873 10.3071H12.9356Z" fill="#2D303E"/>
</svg>
